<svg width="78" height="94" viewBox="0 0 78 94" fill="none" xmlns="http://www.w3.org/2000/svg">
<g id="Group 553">
<path id="Vector" d="M52.2986 93.6271C52.214 93.6472 52.1257 93.6472 52.0411 93.6271L10.2285 76.8763C10.123 76.8358 10.0289 76.7704 9.95422 76.6858C9.8795 76.6011 9.82639 76.4996 9.79934 76.39C9.7733 76.2811 9.77261 76.1677 9.79741 76.0586C9.82222 75.9494 9.87182 75.8475 9.94235 75.7605L14.3339 70.382C14.4317 70.2587 14.5681 70.1719 14.7212 70.1356C14.8743 70.0993 15.0352 70.1155 15.1779 70.1817L52.7134 87.0326L71.5956 51.7286C71.6699 51.6009 71.7798 51.4977 71.912 51.4316C72.0441 51.3655 72.1927 51.3395 72.3394 51.3567L77.3461 52.0862C77.4591 52.1026 77.5664 52.1464 77.6586 52.2137C77.7509 52.281 77.8253 52.3699 77.8753 52.4725C77.9279 52.5716 77.9555 52.6821 77.9555 52.7943C77.9555 52.9065 77.9279 53.0171 77.8753 53.1162L58.8644 90.8377C58.7787 91.0061 58.6297 91.1338 58.4501 91.1927C58.2706 91.2517 58.075 91.2372 57.906 91.1524C57.8213 91.1114 57.7457 91.0538 57.6837 90.9829C57.6217 90.912 57.5746 90.8295 57.5452 90.74C57.5158 90.6506 57.5048 90.5561 57.5127 90.4623C57.5206 90.3685 57.5473 90.2772 57.5913 90.194L76.1874 53.3594L72.6542 52.8444L53.6861 88.2914C53.6033 88.4516 53.4619 88.5736 53.2914 88.6322C53.1209 88.6908 52.9344 88.6815 52.7706 88.6061L15.1206 71.7123L11.6876 75.9179L52.599 92.2968C52.7887 92.3328 52.9563 92.4427 53.0649 92.6024C53.1736 92.762 53.2144 92.9582 53.1783 93.1479C53.1423 93.3376 53.0324 93.5052 52.8728 93.6138C52.7131 93.7225 52.5169 93.7633 52.3272 93.7272L52.2986 93.6271Z" fill="#3226C8"/>
<path id="Vector_2" d="M53.0279 88.6214C52.8713 88.6206 52.7193 88.5683 52.5953 88.4727C52.4713 88.3771 52.382 88.2434 52.3413 88.0922L36.7206 30.7589L6.60923 17.384L15.893 67.5363C15.9271 67.726 15.8845 67.9215 15.7745 68.0798C15.6645 68.2381 15.4961 68.3461 15.3064 68.3803C15.1167 68.4144 14.9213 68.3718 14.763 68.2618C14.6047 68.1518 14.4966 67.9835 14.4625 67.7938L4.9212 16.2969C4.90115 16.1699 4.91441 16.04 4.95953 15.9196C5.00466 15.7993 5.08019 15.6927 5.17876 15.6103C5.28195 15.5271 5.40656 15.4749 5.53822 15.4597C5.66987 15.4445 5.80313 15.4669 5.92255 15.5244L37.5789 29.6002C37.6752 29.6424 37.761 29.7053 37.8302 29.7844C37.8994 29.8635 37.9504 29.9569 37.9794 30.058L53.7146 87.7059C53.7427 87.797 53.7519 87.8929 53.7417 87.9877C53.7314 88.0824 53.7021 88.1742 53.6552 88.2572C53.6084 88.3402 53.545 88.4128 53.4692 88.4705C53.3933 88.5282 53.3064 88.5698 53.2139 88.5928L53.0279 88.6214Z" fill="#3226C8"/>
<path id="Vector_3" d="M10.5001 76.8769C10.3315 76.8769 10.168 76.8184 10.0376 76.7115C9.90724 76.6046 9.81795 76.4558 9.78488 76.2904L0.987458 25.9522C0.958608 25.8251 0.958608 25.6931 0.987458 25.566L4.94989 15.896C4.98558 15.8086 5.03811 15.7292 5.10451 15.6621C5.17091 15.5951 5.24992 15.5418 5.33693 15.5052C5.42393 15.4687 5.51724 15.4497 5.6116 15.4492C5.70596 15.4488 5.79954 15.4669 5.88689 15.5026C5.97424 15.5383 6.05366 15.5908 6.1207 15.6572C6.18774 15.7236 6.24107 15.8026 6.27759 15.8896C6.31412 15.9766 6.33319 16.07 6.33365 16.1643C6.3341 16.2587 6.31591 16.3522 6.28021 16.4396L2.38938 25.9093L11.1582 75.9757C11.1874 76.1631 11.1425 76.3545 11.0331 76.5094C10.9236 76.6643 10.7581 76.7705 10.5716 76.8054L10.5001 76.8769Z" fill="#3226C8"/>
<path id="Vector_4" d="M69.9083 48.0247C69.7572 48.0266 69.6093 47.9806 69.4859 47.8932C69.3626 47.8058 69.27 47.6816 69.2217 47.5384L54.5022 2.44994L37.9373 30.6159C37.8389 30.7755 37.6816 30.8901 37.4995 30.9349C37.3174 30.9798 37.125 30.9513 36.9637 30.8557C36.8024 30.76 36.6851 30.6048 36.6371 30.4235C36.5891 30.2422 36.6143 30.0493 36.7071 29.8864L54.0874 0.36147C54.154 0.241015 54.2547 0.142864 54.3768 0.0792653C54.4989 0.0156671 54.637 -0.0105613 54.774 0.00385223C54.9102 0.0188473 55.0392 0.0726468 55.1457 0.158869C55.2522 0.245092 55.3317 0.360102 55.3747 0.490207L70.5806 47.1378C70.6117 47.227 70.6244 47.3215 70.6181 47.4156C70.6117 47.5098 70.5864 47.6017 70.5437 47.6859C70.5009 47.7701 70.4416 47.8447 70.3693 47.9054C70.297 47.9661 70.2132 48.0115 70.1229 48.039C70.0511 48.0482 69.9783 48.0433 69.9083 48.0247Z" fill="#3226C8"/>
<path id="Vector_5" d="M77.2459 53.4593C77.0935 53.458 76.9453 53.4091 76.8221 53.3193C76.699 53.2295 76.6071 53.1033 76.5592 52.9586L59.7369 1.46172H54.6874C54.5935 1.45986 54.5008 1.4395 54.4147 1.40183C54.3287 1.36415 54.2509 1.30989 54.1858 1.24214C54.1207 1.17439 54.0696 1.0945 54.0354 1.00699C54.0012 0.919489 53.9846 0.826097 53.9865 0.732166C54.0001 0.548357 54.0803 0.375823 54.2119 0.246816C54.3435 0.117808 54.5177 0.0411773 54.7017 0.03125H60.2662C60.4144 0.0344106 60.5582 0.0826386 60.6783 0.169526C60.7984 0.256412 60.8892 0.37783 60.9385 0.517604L77.9182 52.4865C77.9493 52.5757 77.962 52.6702 77.9557 52.7644C77.9493 52.8585 77.924 52.9505 77.8813 53.0346C77.8385 53.1188 77.7792 53.1934 77.7069 53.2541C77.6346 53.3148 77.5507 53.3603 77.4604 53.3877C77.3944 53.4256 77.3215 53.45 77.2459 53.4593Z" fill="#3226C8"/>
<path id="Vector_6" d="M49.7663 68.5955C49.6398 68.598 49.5155 68.5632 49.4087 68.4954C49.3269 68.4495 49.255 68.3876 49.1976 68.3134C49.1401 68.2392 49.0981 68.1542 49.0741 68.0635C49.0501 67.9728 49.0446 67.8782 49.0578 67.7853C49.071 67.6924 49.1028 67.6031 49.1512 67.5227L62.7979 43.9199C62.8961 43.7566 63.0545 43.6382 63.2389 43.59C63.4234 43.5419 63.6193 43.5679 63.7849 43.6625C63.8667 43.7084 63.9385 43.7703 63.996 43.8445C64.0535 43.9186 64.0954 44.0036 64.1195 44.0943C64.1435 44.185 64.149 44.2797 64.1358 44.3726C64.1225 44.4655 64.0908 44.5548 64.0424 44.6352L50.3814 68.2236C50.3208 68.3344 50.232 68.4271 50.1239 68.4925C50.0159 68.5578 49.8925 68.5933 49.7663 68.5955Z" fill="#3226C8"/>
<path id="Vector_7" d="M47.5202 58.3229C47.394 58.3237 47.27 58.289 47.1626 58.2227C47.0808 58.1768 47.0089 58.1149 46.9515 58.0407C46.894 57.9665 46.852 57.8816 46.828 57.7908C46.804 57.7001 46.7985 57.6055 46.8117 57.5126C46.8249 57.4197 46.8567 57.3304 46.9051 57.25L60.5661 33.6473C60.6073 33.5561 60.6672 33.4745 60.7419 33.4079C60.8166 33.3414 60.9044 33.2912 60.9997 33.2607C61.0951 33.2301 61.1957 33.2199 61.2952 33.2308C61.3947 33.2416 61.4909 33.2732 61.5774 33.3235C61.6639 33.3738 61.7389 33.4417 61.7975 33.5228C61.8561 33.6039 61.8971 33.6964 61.9177 33.7943C61.9384 33.8923 61.9382 33.9934 61.9173 34.0913C61.8964 34.1891 61.8551 34.2816 61.7963 34.3625L48.1353 57.9652C48.0729 58.0733 47.9833 58.1632 47.8754 58.226C47.7675 58.2887 47.645 58.3221 47.5202 58.3229Z" fill="#3226C8"/>
<path id="Vector_8" d="M45.217 48.0527C45.0928 48.0517 44.9705 48.0223 44.8594 47.9668C44.696 47.8686 44.5776 47.7103 44.5295 47.5258C44.4814 47.3414 44.5074 47.1454 44.6019 46.9798L58.2629 23.3914C58.3041 23.3002 58.364 23.2186 58.4388 23.1521C58.5135 23.0855 58.6013 23.0353 58.6966 23.0048C58.7919 22.9742 58.8925 22.9641 58.992 22.9749C59.0915 22.9857 59.1876 23.0173 59.2741 23.0676C59.3606 23.1179 59.4357 23.1858 59.4943 23.2669C59.5529 23.348 59.5939 23.4405 59.6145 23.5384C59.6352 23.6364 59.635 23.7375 59.6141 23.8354C59.5932 23.9333 59.552 24.0257 59.4931 24.1066L45.8464 47.6951C45.7807 47.8033 45.6883 47.893 45.5781 47.9556C45.468 48.0182 45.3437 48.0516 45.217 48.0527Z" fill="#3226C8"/>
<path id="Vector_9" d="M42.944 37.7975C42.8178 37.7983 42.6939 37.7636 42.5864 37.6973C42.5046 37.6514 42.4329 37.5895 42.3754 37.5153C42.3179 37.4411 42.2759 37.3562 42.2519 37.2654C42.2278 37.1747 42.2223 37.0801 42.2355 36.9872C42.2488 36.8943 42.2806 36.805 42.3289 36.7246L55.9899 13.1219C56.0311 13.0307 56.0911 12.9491 56.1658 12.8825C56.2405 12.8159 56.3283 12.7657 56.4236 12.7352C56.5189 12.7047 56.6195 12.6945 56.719 12.7054C56.8185 12.7162 56.9147 12.7478 57.0012 12.7981C57.0877 12.8484 57.1627 12.9163 57.2213 12.9974C57.28 13.0785 57.3209 13.171 57.3415 13.2689C57.3622 13.3669 57.362 13.468 57.3411 13.5659C57.3202 13.6638 57.279 13.7562 57.2202 13.8371L43.5734 37.4398C43.5087 37.5491 43.4167 37.6395 43.3063 37.7022C43.1959 37.7649 43.071 37.7978 42.944 37.7975Z" fill="#3226C8"/>
<path id="Vector_10" d="M42.9856 68.5959C42.8908 68.6106 42.7943 68.6106 42.6995 68.5959L20.0838 58.5826C19.9093 58.5067 19.772 58.3646 19.7023 58.1876C19.6325 58.0105 19.636 57.813 19.7119 57.6385C19.7877 57.4639 19.9299 57.3267 20.1069 57.257C20.284 57.1872 20.4814 57.1907 20.6559 57.2665L43.2717 67.2798C43.3584 67.3171 43.4367 67.3712 43.5023 67.439C43.568 67.5067 43.6195 67.5867 43.6541 67.6745C43.6886 67.7622 43.7055 67.856 43.7038 67.9503C43.702 68.0446 43.6815 68.1376 43.6436 68.2239C43.5783 68.3401 43.4826 68.4362 43.3666 68.5017C43.2506 68.5673 43.1188 68.5999 42.9856 68.5959Z" fill="#3226C8"/>
<path id="Vector_11" d="M41.9989 58.8815C41.9047 58.9025 41.807 58.9025 41.7128 58.8815L19.0971 48.8682C19.0092 48.8325 18.9295 48.7793 18.8628 48.7118C18.796 48.6444 18.7437 48.5641 18.7089 48.4758C18.6741 48.3875 18.6577 48.2931 18.6605 48.1983C18.6632 48.1035 18.6853 48.0102 18.7252 47.9241C18.8032 47.7517 18.9464 47.6173 19.1234 47.5503C19.3003 47.4833 19.4966 47.4891 19.6693 47.5665L42.285 57.5798C42.4747 57.6177 42.6415 57.7295 42.7488 57.8904C42.8561 58.0514 42.8951 58.2484 42.8572 58.4381C42.8192 58.6277 42.7075 58.7946 42.5465 58.9019C42.3856 59.0092 42.1886 59.0482 41.9989 59.0102V58.8815Z" fill="#3226C8"/>
<path id="Vector_12" d="M37.8936 48.7975C37.7994 48.819 37.7016 48.819 37.6075 48.7975L14.9918 38.7842C14.8959 38.754 14.8074 38.704 14.7322 38.6374C14.657 38.5707 14.5966 38.489 14.555 38.3974C14.5135 38.3059 14.4918 38.2067 14.4912 38.1062C14.4906 38.0057 14.5112 37.9061 14.5516 37.8141C14.5921 37.7221 14.6515 37.6397 14.7259 37.5721C14.8004 37.5046 14.8882 37.4536 14.9837 37.4223C15.0792 37.391 15.1803 37.3802 15.2802 37.3905C15.3802 37.4009 15.4769 37.4322 15.5639 37.4825L38.1796 47.4958C38.2662 47.5331 38.3447 47.5872 38.4103 47.6549C38.4759 47.7227 38.5275 47.8027 38.562 47.8904C38.5966 47.9782 38.6135 48.0719 38.6117 48.1662C38.6099 48.2605 38.5894 48.3535 38.5516 48.4399C38.4833 48.5524 38.3865 48.6447 38.2709 48.7075C38.1553 48.7703 38.0251 48.8014 37.8936 48.7975Z" fill="#3226C8"/>
<path id="Vector_13" d="M36.2345 38.5552C36.1306 38.5518 36.0285 38.5275 35.9342 38.4837L13.3185 28.4704C13.1451 28.3895 13.0104 28.2437 12.9435 28.0644C12.8766 27.8851 12.8829 27.6867 12.9608 27.512C13.0389 27.3396 13.182 27.2052 13.359 27.1382C13.5359 27.0711 13.7322 27.077 13.9049 27.1544L36.5206 37.1677C36.6073 37.2048 36.6856 37.259 36.7508 37.327C36.816 37.395 36.8668 37.4756 36.9002 37.5637C36.9336 37.6518 36.9488 37.7458 36.945 37.84C36.9413 37.9342 36.9186 38.0266 36.8783 38.1118C36.8271 38.2413 36.7386 38.3526 36.6239 38.4315C36.5093 38.5105 36.3737 38.5536 36.2345 38.5552Z" fill="#3226C8"/>
</g>
</svg>
